<svg version="1.1" xmlns="http://www.w3.org/2000/svg" xmlns:xlink="http://www.w3.org/1999/xlink" width="696.67095" height="590" viewBox="231.30132,204.5,696.67095,590"><g fill="none" fill-rule="nonzero" stroke="none" stroke-width="1" stroke-linecap="none" stroke-linejoin="none" stroke-miterlimit="10" stroke-dasharray="" stroke-dashoffset="0" font-family="none" font-weight="none" font-size="none" text-anchor="none" style="mix-blend-mode: normal"><path d="M271.5,255l308,539l308,-539z" id="Path 1" fill="#9f455b" stroke="#000000" stroke-linecap="round" stroke-linejoin="round"/><text x="582.15898" y="291" id="PointText 1" fill="#f8d152" stroke="none" stroke-linecap="butt" stroke-linejoin="miter" font-family="font-YoungSerif-Regular" font-weight="normal" font-size="40" text-anchor="middle">Is Not</text><text x="663.63837" y="-101.99" transform="rotate(58.77829)" id="PointText 1" fill="#f8d152" stroke="none" stroke-linecap="butt" stroke-linejoin="miter" font-family="font-YoungSerif-Regular" font-weight="normal" font-size="40" text-anchor="middle">Is Not</text><text x="-66.6298" y="888.97313" transform="rotate(-59.06725)" id="PointText 1" fill="#f8d152" stroke="none" stroke-linecap="butt" stroke-linejoin="miter" font-family="font-YoungSerif-Regular" font-weight="normal" font-size="40" text-anchor="middle">Is Not</text><path d="M345.5,303l234.66025,382l234.66025,-382z" id="Path 1" fill="#5b3365" stroke="#000000" stroke-linecap="round" stroke-linejoin="round"/><path d="M371.14414,285.47808l211.01484,103.42987l-25.9675,52.97819l-211.01484,-103.42987z" id="Path 1" fill="#9f455b" stroke="#000000" stroke-linecap="round" stroke-linejoin="round"/><path d="M818.29917,336.55367l-209.32392,106.81056l-26.81627,-52.55367l209.32392,-106.81056z" id="Path 1" fill="#9f455b" stroke="#000000" stroke-linecap="round" stroke-linejoin="round"/><path d="M550.66025,685v-235h59v235z" id="Path 1" fill="#9f455b" stroke="#000000" stroke-linecap="round" stroke-linejoin="round"/><path d="M458.16025,427c0,-68.48331 55.51669,-124 124,-124c68.48331,0 124,55.51669 124,124c0,68.48331 -55.51669,124 -124,124c-68.48331,0 -124,-55.51669 -124,-124z" id="Path 1" fill="#cd5139" stroke="#000000" stroke-linecap="round" stroke-linejoin="round"/><text x="276.92318" y="215.1162" transform="scale(2.10224,2.10224)" id="PointText 1" fill="#f8d152" stroke="none" stroke-linecap="butt" stroke-linejoin="miter" font-family="font-YoungSerif-Regular" font-weight="normal" font-size="40" text-anchor="middle">God</text><path d="M500.49873,715c0,-43.6305 35.3695,-79 79,-79c43.6305,0 79,35.3695 79,79c0,43.6305 -35.3695,79 -79,79c-43.6305,0 -79,-35.3695 -79,-79z" id="Path 1" fill="#cd5139" stroke="#000000" stroke-linecap="round" stroke-linejoin="round"/><path d="M231.80132,284c0,-43.6305 35.3695,-79 79,-79c43.6305,0 79,35.3695 79,79c0,43.6305 -35.3695,79 -79,79c-43.6305,0 -79,-35.3695 -79,-79z" id="Path 1" fill="#cd5139" stroke="#000000" stroke-linecap="round" stroke-linejoin="round"/><path d="M769.47227,284c0,-43.6305 35.3695,-79 79,-79c43.6305,0 79,35.3695 79,79c0,43.6305 -35.3695,79 -79,79c-43.6305,0 -79,-35.3695 -79,-79z" id="Path 1" fill="#cd5139" stroke="#000000" stroke-linecap="round" stroke-linejoin="round"/><text x="433.41079" y="384.03649" transform="scale(0.71711,0.71711)" id="PointText 1" fill="#f8d152" stroke="none" stroke-linecap="butt" stroke-linejoin="miter" font-family="font-YoungSerif-Regular" font-weight="normal" font-size="40" text-anchor="middle">The
Father</text><text x="1068.71506" y="334.10235" transform="scale(0.79168,0.79168)" id="PointText 1" fill="#f8d152" stroke="none" stroke-linecap="butt" stroke-linejoin="miter" font-family="font-YoungSerif-Regular" font-weight="normal" font-size="40" text-anchor="middle">The
Son</text><text x="936.98761" y="1175.81328" transform="scale(0.61847,0.61847)" id="PointText 1" fill="#f8d152" stroke="none" stroke-linecap="butt" stroke-linejoin="miter" font-family="font-YoungSerif-Regular" font-weight="normal" font-size="40" text-anchor="middle">The
Holy
Spirit</text><text x="444.77243" y="125.96316" transform="rotate(24.5725) scale(1.19462,1.20779) skewX(0.7209)" id="PointText 1" fill="#f8d152" stroke="none" stroke-linecap="butt" stroke-linejoin="miter" font-family="font-YoungSerif-Regular" font-weight="normal" font-size="40" text-anchor="middle">Is</text><text x="445.33127" y="518.47269" transform="rotate(-23.41948) scale(1.19462,1.20779) skewX(0.7209)" id="PointText 1" fill="#f8d152" stroke="none" stroke-linecap="butt" stroke-linejoin="miter" font-family="font-YoungSerif-Regular" font-weight="normal" font-size="40" text-anchor="middle">Is</text><text x="497.42245" y="481.63901" transform="rotate(1.89945) scale(1.19462,1.20779) skewX(0.7209)" id="PointText 1" fill="#f8d152" stroke="none" stroke-linecap="butt" stroke-linejoin="miter" font-family="font-YoungSerif-Regular" font-weight="normal" font-size="40" text-anchor="middle">Is</text></g></svg>