<svg version="1.1" xmlns="http://www.w3.org/2000/svg" xmlns:xlink="http://www.w3.org/1999/xlink" width="263.43307" height="484.70799" viewBox="811.84127,198.11179,263.43307,484.70799"><g fill="#0d0405" fill-rule="nonzero" stroke="none" stroke-width="1" stroke-linecap="round" stroke-linejoin="round" stroke-miterlimit="10" stroke-dasharray="" stroke-dashoffset="0" font-family="none" font-weight="none" font-size="none" text-anchor="none" style="mix-blend-mode: normal"><path d="M921.30556,608v-240.06417l-68.30556,-2.02882h-12.19302h-23.80698c-6.5,0 -6.93377,-2.3347 -0.86754,-4.6694l11.86754,-4.56744l-8.01577,-0.41134c-5.99212,-0.30749 -6.90126,-3.80299 -1.81828,-6.99099l7.83405,-4.91346l-12.01224,-1.89667c-0.49388,-0.07798 -0.86202,-0.63989 -0.73628,-1.12383l3.74852,-14.42688l24.14283,0.35321l9.86327,0.33854l70.29946,1.33601v-87.30392l0.22777,-8.82497l-0.22777,-24.69408l1.17564,-0.80185c4.54376,-3.09908 14.58752,-6.19815 20.08752,-6.19815h0.28947l3.04565,11.27673c1.04296,3.86164 3.1641,3.87132 4.24228,0.01937l4.00154,-14.2961l0.21339,0.24258c2.97225,3.37872 5.9445,11.25743 5.9445,15.75743v18.69407v3.66592v3.64l0.00001,89.56415l55.51094,1.05496l24.98878,0.57498h28.30585c8,0 8.25553,2.00578 0.51105,4.01155l-18.45663,4.78017l10.2987,0.35564c8.99464,0.31061 9.69756,4.12086 1.40585,7.6205l-8.87576,3.74615l10.43197,1.10844c3.97761,0.42264 6.51445,4.57679 5.07368,8.3083l-2.41587,6.25697c-0.1801,0.46644 -0.85967,0.95571 -1.35915,0.97854l-25.02837,1.14413l-9.09349,0.4157l-16.9826,0.77634l-54.31495,-2.13132v250.31944l-0.2277,13.80944l-0.41545,25.19778c-0.22255,13.49817 -3.78356,13.91563 -7.12201,0.83493l-4.29754,-16.8386l-1.99536,32l-6.15395,6.16829c-1.41257,1.41586 -2.88947,0.83275 -2.9538,-1.16622l-0.86901,-27.00207l-4.98839,-9l-0.74301,35.0027c-0.12733,5.99865 -2.61354,6.48044 -4.97242,0.96358l-4.26134,-9.96629l0.18088,-36.19411z" id="Path 1"/></g></svg>