<svg version="1.1" xmlns="http://www.w3.org/2000/svg" xmlns:xlink="http://www.w3.org/1999/xlink" width="353.55493" height="459.20857" viewBox="323.22254,211.64571,353.55493,459.20857"><g fill="none" fill-rule="nonzero" stroke="none" stroke-width="none" stroke-linecap="round" stroke-linejoin="round" stroke-miterlimit="10" stroke-dasharray="" stroke-dashoffset="0" font-family="none" font-weight="none" font-size="none" text-anchor="none" style="mix-blend-mode: normal"><path d="M386.11053,463.69005c-22.60385,-15.87851 -27.7606,-49.91923 -9.97416,-69.56782l6.65391,-7.35055l6.9379,4.3521c25.22871,15.82581 32.25801,51.72893 13.24682,72.73049h14.28285c-6.36499,-27.0032 15.70548,-60.05587 44.36304,-66.27758l10.46687,-2.27241l1.89865,7.73373c6.06171,24.69097 -10.42244,54.99021 -34.89854,66.26386l14.3274,17.07473c1.33443,-16.94762 13.18891,-34.26294 30.8618,-41.15023l9.10228,-3.54724l3.33494,5.97701c11.49348,20.59909 -0.3732,50.30188 -23.78423,61.97729l22.3254,26.60637l31.15586,-37.13011c-19.72386,-13.3378 -26.72497,-44.04458 -13.80296,-63.2122l4.87731,-7.23467l6.13276,3.55199c14.50197,8.39931 23.11117,25.53954 23.52712,42.1848l8.84858,-10.54533h5.92128c-22.32075,-15.80691 -27.46387,-50.01544 -9.99348,-69.73204l6.51313,-7.35055l6.79111,4.3521c24.69493,15.82581 31.57551,51.72893 12.96655,72.73049l11.57905,-1.22063c12.74895,-26.81809 48.49759,-38.77067 71.49729,-23.90517l6.32492,4.08802l-4.46213,9.38634c-11.74144,24.69876 -43.75112,36.29745 -65.8851,24.71743c26.56583,9.35175 45.4102,42.0072 39.55508,68.47657l-1.73819,7.85792l-10.40784,-2.12577c-23.74231,-4.84931 -43.29835,-28.6236 -45.80336,-52.28724l-20.40214,24.31433c28.04123,2.91598 53.22375,33.58496 50.2765,61.32872l-0.81049,7.62953l-9.81443,-1.02059c-26.46616,-2.75219 -50.20459,-31.1819 -48.44069,-57.4632l-28.29758,33.72374l86.84681,103.5h-13.391h-38.82529l-60.73867,-72.38552l-26.10815,-31.11448l-16.24785,-19.36344c2.9838,22.19726 -11.42384,47.9465 -33.92469,56.54028l-9.65599,3.68793l-3.22043,-6.82646c-11.71064,-24.82349 4.16726,-60.18393 31.7558,-70.72087l0.38837,-0.14833l-16.83794,-20.06668c0.505,23.76692 -18.39687,49.54035 -42.61472,55.22852l-10.00291,2.34943l-1.95958,-7.40383c-6.94195,-26.22866 13.24065,-58.82819 40.71132,-66.69885l-12.69666,-15.1313c-6.73147,25.38401 -36.76929,45.20754 -62.06948,40.19658l-9.55001,-1.89147l1.45855,-7.64564c4.82139,-25.27342 35.99359,-46.2535 61.42944,-45.77009z" id="Path 1" fill="#ffffff" stroke="none" stroke-width="1"/><path d="M462.45182,575.33365l26.10815,31.11448l-54.04317,64.40614h-52.21629z" id="Path 1" fill="#ffffff" stroke="none" stroke-width="1"/><path d="M676.65488,356.6604c-0.08222,37.75326 -50.63793,61.4184 -50.63793,61.4184c0,0 16.39981,-26.63403 8.02836,-52.61846c-11.59383,-30.08134 -16.39989,-19.61659 -19.07037,-66.77672c2.81156,-48.44588 32.22134,-49.10653 32.22134,-49.10653c0,0 -11.64184,1.34324 -4.64883,27.27216c6.99301,25.92891 36.35684,47.52431 34.10743,79.81115z" id="Path 1" fill="#ff4631" stroke="none" stroke-width="1"/><path d="M563.53304,348.52012c-9.31383,-30.92022 -3.7073,-59.04717 4.72382,-84.44417c3.64852,-20.41946 -9.09841,-38.24049 -9.09841,-38.24049c0,0 32.22599,6.03547 45.70333,52.55603c8.34298,46.48769 -1.96302,47.35593 -2.81669,80.43775c-1.25364,18.21134 11.77711,42.37526 11.77711,42.37526c0,0 -41.64925,-15.96282 -50.28916,-52.68438z" id="Path 1" fill="#ff4631" stroke="none" stroke-width="1"/><path d="M516.74448,281.32237c7.19378,-16.78581 -1.03422,-34.88781 -1.03422,-34.88781c0,0 28.19953,12.17843 31.65112,55.14238c-1.21733,41.82305 -10.76624,40.33712 -17.81593,68.62792c-4.59443,15.40409 2.68939,39.02736 2.68939,39.02736c0,0 -34.89777,-22.76558 -35.80249,-56.24659c-2.6183,-28.63344 7.81973,-51.62933 20.31213,-71.66326z" id="Path 1" fill="#ff4631" stroke="none" stroke-width="1"/><path d="M461.49729,386.93576c0,0 4.7957,-25.73368 -2.06248,-41.94466c-11.11198,-29.85728 -21.12831,-27.68479 -27.71927,-72.38437c-1.74589,-46.20541 26.84868,-60.96102 26.84868,-60.96102c0,0 -6.50306,19.8804 3.30766,37.41222c15.88385,20.68631 29.94697,44.66868 30.77072,75.48178c3.26811,35.89828 -31.14531,62.39605 -31.14531,62.39605z" id="Path 1" fill="#ff4631" stroke="none" stroke-width="1"/><path d="M382.38737,341.82465c0.02802,-26.26614 16.69405,-45.79013 20.75775,-61.49222c4.0637,-15.70209 3.20763,-33.89788 3.20763,-33.89788c0,0 22.25801,13.3665 21.82368,52.73969c-4.18622,37.95673 -11.92412,35.83086 -19.87505,61.00177c-4.95073,13.64408 -0.7612,35.72948 -0.7612,35.72948c0,0 -26.95894,-23.54269 -25.15281,-54.08084z" id="Path 1" fill="#ff4631" stroke="none" stroke-width="1"/><path d="M349.51305,281.05034c9.5966,-15.47329 10.46482,-34.61579 10.46482,-34.61579c0,0 25.40051,16.36036 22.01131,59.32392c-7.73189,41.11946 -16.74631,38.18487 -28.00603,65.04318c-6.86286,14.50798 -3.51054,38.9585 -3.51054,38.9585c0,0 -30.22832,-27.84581 -25.85851,-61.05229c1.95081,-28.68204 9.66219,-49.79026 24.89895,-67.65752z" id="Path 1" fill="#ff4631" stroke="none" stroke-width="1"/><g id="Group 1" fill="#ffffff" stroke="#000000" stroke-width="0"><path d="M462.45182,575.33365l26.10815,31.11448l-54.04317,64.40614h-52.21629z" id="Path 1"/></g></g></svg>