<svg version="1.1" xmlns="http://www.w3.org/2000/svg" xmlns:xlink="http://www.w3.org/1999/xlink" width="435.15933" height="551.60658" viewBox="742.42033,169.69671,435.15933,551.60658"><g fill="#0c0d05" fill-rule="nonzero" stroke="#000000" stroke-width="1" stroke-linecap="round" stroke-linejoin="round" stroke-miterlimit="10" stroke-dasharray="0,2" stroke-dashoffset="0" font-family="none" font-weight="none" font-size="none" text-anchor="none" style="mix-blend-mode: normal"><path d="M1062.76463,557.68063c38.01852,-43.45386 39.82377,-16.99707 106.89861,46.51852c21.85627,40.25604 -10.29473,59.33688 -23.25341,82.22816c-22.24655,32.36181 -18.38146,20.01761 -38.63351,34.37598c-13.08573,-0.25537 -26.81465,-2.30851 -40.97599,-6.05022c-61.18142,-16.16535 -130.43417,-63.84802 -190.76347,-134.24203c-13.98921,-16.32303 -27.49862,-33.86721 -40.31633,-52.52277c-13.12843,-19.10778 -24.90828,-38.4748 -35.31108,-57.84622c-44.48334,-82.83399 -63.78727,-165.74834 -55.68559,-228.81759c1.67736,-13.05775 4.52946,-25.26484 8.57605,-36.44445c20.69041,-13.77457 43.29117,-22.25324 66.01502,-25.6994c54.77035,-11.56154 59.55179,-22.02396 81.14358,36.79609c13.53032,83.18279 45.68234,85.41539 -21.65935,111.27433l-28.11196,13.29324c-25.87788,4.1727 19.73153,77.97158 42.46958,114.37704c4.84297,7.75399 9.90602,15.48261 15.18732,23.16928c4.90073,7.13276 9.90256,14.10306 14.99367,20.90475c21.73241,29.03439 77.92269,98.85828 107.04471,86.25064z" id="Path 1"/></g></svg>